<?xml version="1.0" standalone="no"?>
<!DOCTYPE svg PUBLIC "-//W3C//DTD SVG 20010904//EN"
 "http://www.w3.org/TR/2001/REC-SVG-20010904/DTD/svg10.dtd">
<svg version="1.0" xmlns="http://www.w3.org/2000/svg"
 width="400.000000pt" height="400.000000pt" viewBox="0 0 400.000000 400.000000"
 preserveAspectRatio="xMidYMid meet">
<metadata>
Created by potrace 1.14, written by Peter Selinger 2001-2017
</metadata>
<g transform="translate(0.000000,400.000000) scale(0.100000,-0.100000)"
fill="#000000" stroke="none">
<path d="M901 3317 c13 -13 26 -22 28 -20 7 5 -31 43 -42 43 -6 0 1 -10 14
-23z"/>
<path d="M758 3173 c7 -3 16 -2 19 1 4 3 -2 6 -13 5 -11 0 -14 -3 -6 -6z"/>
<path d="M856 3155 c10 -8 24 -14 29 -14 6 0 1 6 -9 14 -11 8 -24 15 -30 15
-5 0 -1 -7 10 -15z"/>
<path d="M780 3070 c-234 -28 -364 -65 -468 -134 -96 -62 -121 -119 -85 -193
18 -39 84 -92 123 -99 18 -4 36 -23 60 -65 19 -32 38 -59 43 -59 4 0 7 -6 7
-14 0 -9 16 -17 42 -21 32 -6 53 -19 86 -52 24 -25 41 -47 38 -50 -3 -3 2 -12
10 -20 8 -9 13 -22 10 -29 -3 -9 2 -14 14 -14 11 0 20 -4 20 -9 0 -5 9 -13 21
-16 11 -4 27 -23 35 -42 14 -31 13 -37 -1 -53 -11 -12 -12 -19 -5 -22 18 -6 1
-55 -21 -61 -11 -3 -19 -14 -19 -25 0 -11 -4 -22 -9 -24 -17 -6 -22 -45 -6
-52 23 -8 40 2 53 32 7 15 10 18 8 7 -2 -11 -7 -28 -11 -37 -4 -11 -3 -18 3
-18 6 0 14 9 17 21 10 29 17 17 9 -15 -4 -17 -12 -25 -20 -22 -8 3 -11 0 -8
-8 3 -7 -3 -19 -12 -27 -16 -13 -17 -12 -12 8 4 13 2 26 -3 29 -5 3 -9 0 -9
-6 0 -6 -4 -9 -10 -5 -12 7 -44 -41 -35 -55 3 -5 1 -10 -6 -10 -9 0 -9 -3 0
-14 9 -10 9 -20 0 -40 -9 -20 -9 -29 1 -41 10 -12 10 -16 -2 -20 -22 -9 -70 2
-80 17 -6 10 -8 8 -8 -4 0 -33 -17 -18 -45 37 -18 37 -32 55 -45 55 -10 0 -20
6 -23 13 -2 6 -3 -4 -1 -23 1 -19 3 -46 3 -59 1 -16 5 -21 16 -17 18 7 20 -5
3 -22 -9 -9 -9 -12 0 -12 7 0 11 -6 9 -12 -1 -8 7 -12 21 -11 20 3 21 1 11
-19 -8 -14 -8 -23 -2 -25 7 -3 5 -19 -4 -45 -16 -46 -13 -54 15 -39 27 14 53
15 32 1 -13 -9 -7 -14 13 -11 4 0 7 -6 7 -15 0 -11 -6 -14 -23 -9 -21 6 -21 5
-2 -6 37 -22 58 -50 47 -61 -13 -13 -4 -38 13 -38 7 0 18 -14 25 -31 9 -21 16
-27 23 -20 18 18 25 12 32 -28 3 -22 15 -47 26 -57 12 -11 17 -24 13 -39 -4
-15 0 -24 10 -28 9 -4 16 -2 16 2 0 5 -6 11 -12 14 -7 2 -10 8 -6 12 14 14 38
-17 44 -57 7 -43 11 -47 48 -50 18 -2 22 -6 15 -14 -6 -8 -6 -14 0 -18 5 -3
11 0 14 6 3 10 9 9 22 -4 17 -16 17 -17 -3 -11 -13 3 -22 1 -22 -6 0 -9 -5 -9
-20 -1 -11 6 -20 7 -20 1 0 -5 7 -12 16 -15 9 -4 14 -9 11 -13 -4 -3 -1 -13 5
-21 17 -20 20 -76 3 -62 -6 5 -15 7 -18 3 -4 -3 -15 0 -24 8 -17 13 -17 13 -3
-5 13 -17 13 -19 0 -15 -18 6 -81 129 -75 146 2 7 0 15 -5 18 -4 3 -7 -6 -6
-19 2 -14 -1 -30 -5 -38 -7 -10 -9 -9 -9 3 0 14 -19 29 -35 29 -2 0 8 -20 22
-45 31 -55 120 -155 139 -155 7 0 18 -8 24 -17 11 -17 11 -17 6 -1 -8 26 11
32 26 8 7 -11 18 -20 25 -20 7 0 13 -4 13 -10 0 -5 7 -7 15 -4 8 4 15 1 15 -5
0 -6 10 -10 23 -10 16 1 18 2 5 6 -14 4 -15 7 -5 17 21 21 46 26 61 11 13 -13
15 -13 21 5 3 11 14 20 24 20 56 0 134 62 96 76 -14 6 -14 8 1 25 21 24 35 24
27 1 -5 -14 -3 -13 10 3 9 11 17 26 17 33 0 7 7 15 15 18 8 4 15 10 15 15 0 4
12 21 26 36 22 23 25 24 15 6 -12 -23 -6 -28 23 -17 9 3 16 13 16 21 0 8 6 21
14 29 13 12 17 12 31 -2 13 -14 14 -19 3 -25 -7 -5 -8 -9 -3 -9 6 0 21 9 35
20 25 19 25 20 3 20 -12 0 -25 5 -28 10 -3 6 1 10 10 10 8 0 21 12 28 27 14
34 27 44 48 38 13 -4 16 0 13 22 -4 24 -3 25 5 8 8 -17 10 -18 10 -3 1 10 13
48 27 84 22 55 25 68 13 75 -11 7 -11 9 2 9 11 0 21 16 30 46 8 25 21 54 31
64 9 10 14 21 11 24 -4 4 3 13 15 22 12 8 22 21 22 29 0 8 5 17 12 21 7 5 8 3
3 -6 -5 -8 -4 -11 2 -7 16 10 65 115 58 126 -3 6 -2 11 3 11 6 0 8 9 5 20 -4
14 0 20 12 20 14 0 16 6 9 43 -5 23 -7 68 -6 100 1 41 -3 63 -13 73 -16 17
-21 54 -6 54 11 0 13 41 9 259 -1 78 1 95 15 103 10 5 17 21 17 38 0 18 5 30
13 30 15 0 59 45 76 77 17 33 13 94 -8 130 -53 86 -230 183 -426 233 -187 47
-480 70 -645 50z m821 -337 c13 -16 12 -17 -3 -4 -17 13 -22 21 -14 21 2 0 10
-8 17 -17z m-591 -32 c0 -6 -6 -11 -14 -11 -16 0 -29 27 -20 41 6 10 34 -14
34 -30z m120 30 c0 -5 -3 -11 -7 -14 -5 -2 -3 -3 3 -1 6 1 17 -2 25 -7 10 -6
8 -9 -11 -9 -16 0 -21 -3 -13 -8 8 -5 -1 -8 -21 -9 -34 -1 -34 0 -24 28 9 27
48 43 48 20z m540 -56 c19 -19 32 -35 29 -35 -3 0 -20 16 -39 35 -19 19 -32
35 -29 35 3 0 20 -16 39 -35z m-1260 1 c0 -2 -8 -10 -17 -17 -16 -13 -17 -12
-4 4 13 16 21 21 21 13z m717 -12 c-3 -3 -12 -4 -19 -1 -8 3 -5 6 6 6 11 1 17
-2 13 -5z m356 -11 c-13 -2 -33 -2 -45 0 -13 2 -3 4 22 4 25 0 35 -2 23 -4z
m104 -15 c15 -6 31 -11 36 -10 9 3 8 -38 -3 -63 -8 -19 -9 -19 -9 1 -1 33 -32
65 -71 74 -31 7 -32 8 -8 9 15 1 39 -4 55 -11z m-122 -11 c9 3 15 -5 17 -24 3
-28 5 -29 64 -32 13 -1 24 -9 27 -21 4 -17 40 -39 88 -53 9 -3 21 -26 28 -54
7 -26 18 -61 23 -76 8 -21 7 -36 -5 -65 -27 -63 -36 -139 -46 -364 -1 -9 -12
-29 -25 -45 -13 -15 -22 -36 -20 -46 1 -9 -2 -15 -7 -11 -5 3 -9 -2 -9 -10 0
-9 -7 -16 -15 -16 -7 0 -18 -6 -22 -12 -4 -7 -17 -13 -28 -13 -12 0 -21 -9
-25 -24 l-5 -24 -13 27 c-6 15 -12 35 -12 44 0 12 -5 9 -14 -9 -7 -15 -12 -40
-10 -55 3 -22 2 -25 -4 -10 -8 17 -9 18 -15 3 -3 -9 -12 -15 -19 -13 -7 1 -10
1 -5 -1 9 -6 10 -43 1 -43 -10 0 -54 50 -54 61 0 5 -4 9 -8 9 -12 0 -29 -54
-26 -83 3 -27 -11 -38 -19 -14 -2 6 -2 2 0 -10 4 -26 0 -27 -28 -13 -10 6 -19
21 -19 33 0 19 -2 18 -16 -8 -8 -16 -13 -40 -11 -53 2 -12 0 -25 -4 -28 -5 -3
-9 0 -9 7 0 7 -3 9 -7 5 -5 -4 -8 -13 -8 -18 0 -6 -5 -13 -11 -15 -7 -2 -11 4
-10 13 2 25 -20 28 -43 5 -12 -12 -23 -21 -26 -21 -3 0 -11 0 -19 0 -8 0 -18
-10 -22 -22 -6 -19 -7 -20 -16 -4 -5 9 -7 24 -4 32 4 9 1 14 -6 12 -6 -2 -12
-12 -14 -22 -3 -21 -14 -35 -14 -17 0 8 -12 4 -32 -10 -17 -13 -29 -18 -25
-13 11 18 16 65 6 59 -5 -4 -9 2 -9 12 -1 17 -1 17 -11 0 -6 -10 -9 -27 -6
-37 3 -13 0 -17 -9 -13 -8 3 -14 -1 -14 -11 0 -9 -5 -16 -11 -16 -6 0 -8 7 -5
16 17 45 18 64 2 64 -9 0 -16 -5 -16 -11 0 -5 -5 -7 -12 -3 -8 5 -9 2 -5 -9
11 -29 -11 -29 -28 0 -9 15 -14 20 -11 11 3 -9 -3 -22 -12 -30 -10 -8 -13 -8
-9 -1 4 6 3 14 -2 17 -5 3 -11 -3 -14 -14 -3 -10 0 -21 7 -24 6 -2 1 -5 -11
-5 -12 -1 -24 -7 -26 -13 -3 -7 -6 -3 -6 9 -1 12 -4 30 -7 40 -3 10 -2 14 3 8
15 -19 29 -14 31 11 1 16 -2 23 -9 18 -8 -4 -9 1 -5 17 7 22 5 22 -20 -6 -14
-16 -24 -23 -22 -15 20 61 20 62 8 55 -10 -6 -11 0 -5 26 4 19 8 55 8 80 2 48
18 72 55 83 12 4 22 11 22 15 0 31 80 75 94 52 4 -6 16 -11 27 -11 10 0 18 -5
16 -12 -1 -7 3 -12 10 -13 6 0 15 -4 20 -9 5 -5 -9 -6 -32 -3 -27 4 -35 3 -25
-3 13 -9 13 -10 0 -11 -11 0 -10 -2 3 -7 16 -7 16 -9 1 -27 -16 -20 -16 -20
-9 0 5 16 4 18 -6 8 -9 -9 -10 -16 -2 -24 8 -8 17 -4 33 13 l21 23 -6 -30 c-7
-28 -7 -29 8 -10 8 11 13 24 10 29 -4 5 -1 6 5 2 15 -9 16 -36 2 -36 -5 0 -10
-7 -10 -15 0 -14 3 -14 24 1 14 8 27 23 29 32 3 12 5 10 6 -5 0 -13 -4 -23
-10 -23 -5 0 -7 -5 -3 -12 4 -6 3 -8 -3 -5 -6 4 -17 -1 -24 -10 -10 -12 -10
-14 -1 -9 7 4 12 1 12 -8 0 -9 2 -16 4 -16 2 0 12 -3 21 -6 9 -4 15 -2 13 4
-2 5 0 9 3 9 12 -4 39 26 33 35 -4 6 2 6 13 -1 20 -10 33 -6 33 10 0 5 -7 6
-15 3 -10 -4 -15 0 -15 16 0 11 4 19 9 15 5 -3 12 -1 16 5 4 6 10 8 15 5 15
-9 -1 33 -19 49 -9 8 -36 17 -59 18 -52 4 -54 22 -4 35 40 10 246 12 256 2 4
-4 8 -29 9 -58 2 -42 5 -50 19 -45 10 3 18 -2 21 -13 3 -10 5 -4 6 14 0 18 7
36 14 40 6 4 13 26 13 48 4 107 5 171 1 185 -7 28 -32 75 -50 95 -9 10 -15 25
-13 32 3 7 1 15 -4 18 -24 15 -5 25 48 25 35 0 52 4 44 9 -10 6 0 12 32 22 44
13 46 15 41 41 -5 21 -3 28 9 28 9 0 16 5 16 11 0 5 -4 7 -10 4 -5 -3 -10 -1
-10 4 0 6 7 11 15 11 8 0 15 6 15 13 0 6 7 3 16 -8 14 -19 15 -19 20 3 4 12
14 22 23 23 10 0 11 2 4 6 -7 2 -13 14 -13 25 0 14 -5 18 -15 14 -11 -4 -15 2
-15 20 0 17 -7 28 -20 31 -11 3 -17 10 -14 15 7 11 -40 53 -78 69 -15 6 -25
16 -22 21 4 6 0 15 -7 20 -11 8 -10 9 4 4 9 -3 17 0 17 6 0 9 3 9 11 1 6 -6
17 -9 24 -6z m-395 -7 c0 -5 -17 -9 -37 -9 -38 1 -38 1 -8 9 43 11 45 11 45 0z
m-109 -62 c-7 -24 -15 -51 -17 -60 -4 -12 0 -18 10 -18 17 0 22 -15 7 -24 -5
-4 -12 0 -14 6 -4 10 -8 9 -16 -2 -14 -20 -14 -15 4 50 8 30 15 68 15 85 0 22
3 26 12 17 9 -9 8 -22 -1 -54z m784 42 c10 -11 16 -20 13 -20 -3 0 -13 9 -23
20 -10 11 -16 20 -13 20 3 0 13 -9 23 -20z m-646 -17 c0 -25 -1 -25 -8 -8 -5
11 -7 23 -4 28 8 14 13 7 12 -20z m341 -48 c0 -2 -13 -8 -30 -14 -28 -9 -30
-8 -30 14 0 22 2 23 30 14 17 -6 30 -12 30 -14z m-333 -7 c-3 -8 -6 -5 -6 6
-1 11 2 17 5 13 3 -3 4 -12 1 -19z m329 -23 c-3 -8 -1 -15 4 -15 6 0 10 5 10
10 0 6 5 10 11 10 5 0 7 -5 4 -10 -4 -6 -1 -17 5 -25 23 -28 4 -46 -44 -43
-24 2 -42 6 -39 11 2 4 11 7 19 7 9 0 14 10 14 28 0 26 7 42 18 42 2 0 2 -7
-2 -15z m-36 -35 c0 -5 -2 -10 -4 -10 -3 0 -8 5 -11 10 -3 6 -1 10 4 10 6 0
11 -4 11 -10z m160 -60 c0 -5 -4 -10 -10 -10 -5 0 -10 5 -10 10 0 6 5 10 10
10 6 0 10 -4 10 -10z m-573 -26 c-3 -3 -12 -4 -19 -1 -8 3 -5 6 6 6 11 1 17
-2 13 -5z m-2 -24 c3 -5 -1 -10 -9 -10 -9 0 -16 5 -16 10 0 6 4 10 9 10 6 0
13 -4 16 -10z m-15 -30 c-19 -13 -30 -13 -30 0 0 6 10 10 23 10 18 0 19 -2 7
-10z m56 -21 c4 -8 9 -8 17 0 21 21 87 2 87 -24 0 -13 42 -55 55 -55 6 0 12
-8 12 -17 2 -36 -4 -41 -46 -33 -23 4 -41 5 -41 1 0 -3 -9 -12 -21 -19 -16
-10 -24 -10 -35 -1 -11 9 -17 9 -29 -1 -12 -10 -15 -9 -16 6 -1 17 -2 17 -6 2
-4 -16 -7 -16 -33 3 -22 17 -36 20 -64 15 -39 -7 -42 -3 -26 38 5 14 20 28 35
32 23 6 30 16 26 38 -5 23 71 37 85 15z m169 0 c11 -16 1 -19 -13 -3 -7 8 -8
14 -3 14 5 0 13 -5 16 -11z m86 -199 c13 0 59 -42 59 -54 0 -6 -7 -3 -14 6 -7
10 -16 15 -19 11 -4 -3 -7 -2 -7 4 0 6 -9 13 -20 16 -11 3 -20 13 -19 24 0 10
3 13 6 6 2 -7 9 -13 14 -13z m-441 -27 c9 9 9 7 -1 -10 -13 -21 -13 -21 -26
-3 -9 12 -20 17 -30 13 -15 -6 -16 -5 -3 9 13 14 16 14 31 -3 12 -14 18 -16
29 -6z m445 -13 c3 -5 1 -10 -4 -10 -6 0 -11 5 -11 10 0 6 2 10 4 10 3 0 8 -4
11 -10z m-495 -4 c0 -3 -4 -8 -10 -11 -5 -3 -10 -1 -10 4 0 6 5 11 10 11 6 0
10 -2 10 -4z m957 -168 c-3 -8 -6 -5 -6 6 -1 11 2 17 5 13 3 -3 4 -12 1 -19z
m-747 -18 c0 -5 -5 -10 -11 -10 -5 0 -7 5 -4 10 3 6 8 10 11 10 2 0 4 -4 4
-10z m-320 -35 c14 -19 14 -19 -2 -6 -10 7 -18 18 -18 24 0 6 1 8 3 6 1 -2 9
-13 17 -24z m-210 0 c0 -8 -4 -15 -10 -15 -5 0 -7 7 -4 15 4 8 8 15 10 15 2 0
4 -7 4 -15z m192 -76 c-12 -11 -27 -17 -33 -13 -8 4 -3 12 12 20 36 20 46 17
21 -7z m1038 6 c0 -8 -4 -15 -10 -15 -5 0 -7 7 -4 15 4 8 8 15 10 15 2 0 4 -7
4 -15z m-215 -44 c2 -22 0 -43 -5 -46 -6 -4 -9 10 -7 34 2 23 -1 41 -5 41 -5
0 -6 5 -3 11 10 16 16 5 20 -40z m-792 32 c-18 -7 -16 -21 4 -25 13 -2 11 -7
-12 -22 -20 -13 -30 -15 -33 -7 -2 6 -8 9 -12 6 -5 -3 -12 0 -16 6 -4 7 -3 9
3 6 6 -4 21 5 33 18 13 14 28 25 34 24 6 0 5 -3 -1 -6z m-96 -19 c-3 -3 -12
-4 -19 -1 -8 3 -5 6 6 6 11 1 17 -2 13 -5z m923 -24 c0 -5 -4 -10 -10 -10 -5
0 -10 5 -10 10 0 6 5 10 10 10 6 0 10 -4 10 -10z m-60 -30 c0 -5 -4 -10 -10
-10 -5 0 -10 5 -10 10 0 6 5 10 10 10 6 0 10 -4 10 -10z m-40 -35 c0 -8 -4
-15 -10 -15 -5 0 -10 7 -10 15 0 8 5 15 10 15 6 0 10 -7 10 -15z m-203 -137
c-3 -7 -5 -2 -5 12 0 14 2 19 5 13 2 -7 2 -19 0 -25z m-362 12 c3 -5 2 -17 -3
-26 -8 -14 -10 -13 -23 2 -12 15 -12 17 0 9 11 -6 13 -4 8 8 -7 18 8 24 18 7z
m-195 -60 c0 -5 -2 -10 -4 -10 -3 0 -8 5 -11 10 -3 6 -1 10 4 10 6 0 11 -4 11
-10z m730 -7 c0 -5 -5 -15 -11 -23 -9 -13 -10 -12 -5 3 6 19 -10 24 -17 5 -2
-7 -8 -9 -13 -5 -5 4 -2 12 6 17 18 12 40 13 40 3z m117 -25 c-3 -8 -6 -5 -6
6 -1 11 2 17 5 13 3 -3 4 -12 1 -19z m-807 -9 c0 8 2 12 5 9 3 -3 2 -13 -1
-22 -5 -14 -9 -15 -15 -4 -5 7 -9 18 -9 23 0 6 5 3 10 -5 8 -12 10 -12 10 -1z
m660 -25 c0 -2 -7 -4 -15 -4 -8 0 -15 4 -15 10 0 5 7 7 15 4 8 -4 15 -8 15
-10z m-70 -38 c0 -3 -4 -8 -10 -11 -5 -3 -10 -1 -10 4 0 6 5 11 10 11 6 0 10
-2 10 -4z m-165 -42 c-9 -9 -19 -13 -23 -10 -3 4 0 11 8 16 24 15 33 11 15 -6z
m175 -3 c0 -15 -33 -22 -44 -10 -8 9 -7 10 6 6 10 -3 20 -2 23 3 8 12 15 13
15 1z m-193 -37 c-3 -3 -12 -4 -19 -1 -8 3 -5 6 6 6 11 1 17 -2 13 -5z m153
-4 c0 -5 -5 -10 -11 -10 -5 0 -7 5 -4 10 3 6 8 10 11 10 2 0 4 -4 4 -10z m57
-27 c-3 -10 -5 -4 -5 12 0 17 2 24 5 18 2 -7 2 -21 0 -30z m-117 13 c0 -11
-19 -15 -25 -6 -3 5 1 10 9 10 9 0 16 -2 16 -4z m35 -66 c-3 -5 -11 -10 -16
-10 -6 0 -7 5 -4 10 3 6 11 10 16 10 6 0 7 -4 4 -10z m-405 -206 c0 -3 -7 -1
-15 6 -8 7 -15 17 -15 22 0 5 7 3 15 -6 8 -8 15 -18 15 -22z"/>
<path d="M1591 2464 c0 -11 3 -14 6 -6 3 7 2 16 -1 19 -3 4 -6 -2 -5 -13z"/>
<path d="M1600 2375 c0 -8 5 -15 10 -15 6 0 10 7 10 15 0 8 -4 15 -10 15 -5 0
-10 -7 -10 -15z"/>
<path d="M1476 1907 c3 -10 9 -15 12 -12 3 3 0 11 -7 18 -10 9 -11 8 -5 -6z"/>
<path d="M1431 1784 c0 -11 3 -14 6 -6 3 7 2 16 -1 19 -3 4 -6 -2 -5 -13z"/>
<path d="M1072 1701 c-18 -25 -19 -30 -6 -35 18 -7 29 -2 61 27 24 21 21 46
-3 26 -10 -8 -14 -8 -14 0 0 19 -16 12 -38 -18z"/>
<path d="M930 1699 c0 -6 7 -9 14 -6 11 4 13 1 9 -11 -5 -13 -3 -14 7 -5 7 6
9 16 6 22 -9 14 -36 14 -36 0z"/>
<path d="M1015 1670 c3 -5 8 -10 11 -10 2 0 4 5 4 10 0 6 -5 10 -11 10 -5 0
-7 -4 -4 -10z"/>
<path d="M930 1620 c0 -5 5 -10 11 -10 5 0 7 5 4 10 -3 6 -8 10 -11 10 -2 0
-4 -4 -4 -10z"/>
<path d="M1040 1615 c0 -8 2 -15 4 -15 2 0 6 7 10 15 3 8 1 15 -4 15 -6 0 -10
-7 -10 -15z"/>
<path d="M1001 1603 c0 -12 2 -14 6 -4 5 11 7 11 15 0 8 -12 9 -12 6 0 -6 22
-28 25 -27 4z"/>
<path d="M1080 1580 c-13 -8 -12 -10 3 -10 9 0 17 5 17 10 0 12 -1 12 -20 0z"/>
<path d="M990 1571 c0 -6 4 -13 10 -16 6 -3 7 1 4 9 -7 18 -14 21 -14 7z"/>
<path d="M2962 2705 c0 -16 2 -22 5 -12 2 9 2 23 0 30 -3 6 -5 -1 -5 -18z"/>
<path d="M3843 2675 c0 -27 2 -38 4 -22 2 15 2 37 0 50 -2 12 -4 0 -4 -28z"/>
<path d="M2960 2552 c0 -18 51 -35 64 -22 7 7 2 10 -15 10 -14 0 -30 5 -37 12
-9 9 -12 9 -12 0z"/>
<path d="M2565 2540 c3 -5 10 -10 16 -10 5 0 9 5 9 10 0 6 -7 10 -16 10 -8 0
-12 -4 -9 -10z"/>
<path d="M3182 2540 c2 -8 18 -16 34 -17 18 -1 22 0 9 4 -11 3 -26 10 -34 17
-11 9 -13 8 -9 -4z"/>
<path d="M3400 2543 c0 -28 52 -44 66 -21 5 8 0 9 -15 5 -12 -3 -28 1 -36 10
-8 8 -15 11 -15 6z"/>
<path d="M3844 2537 c3 -10 6 -21 6 -23 0 -2 10 -4 23 -3 14 0 17 2 7 6 -8 3
-21 13 -29 22 -12 15 -13 14 -7 -2z"/>
<path d="M451 2466 c-7 -8 -11 -23 -8 -33 3 -14 6 -12 16 11 13 33 9 43 -8 22z"/>
<path d="M2765 2463 c21 -15 45 -17 45 -4 0 5 -14 11 -32 13 -28 5 -29 4 -13
-9z"/>
<path d="M3629 2447 c16 -20 47 -22 57 -5 5 8 2 9 -10 5 -10 -4 -27 -2 -39 5
-20 10 -21 10 -8 -5z"/>
<path d="M1763 2443 c-16 -6 -15 -37 1 -83 l13 -35 8 53 c7 54 1 73 -22 65z"/>
<path d="M424 2266 c-3 -9 -4 -26 -1 -39 3 -12 1 -58 -4 -102 -5 -44 -10 -107
-12 -140 -4 -56 -3 -58 8 -30 8 17 10 38 5 51 -6 16 -4 21 8 21 20 0 33 -17
24 -32 -10 -16 -11 -35 -2 -35 12 0 23 38 14 51 -3 6 -8 39 -9 73 -4 89 -14
188 -19 194 -3 3 -8 -3 -12 -12z"/>
<path d="M2812 2240 c0 -19 2 -27 5 -17 2 9 2 25 0 35 -3 9 -5 1 -5 -18z"/>
<path d="M2590 2240 c-11 -11 -20 -25 -20 -32 0 -6 9 -2 20 10 19 20 56 28 99
23 7 -2 10 2 6 8 -11 19 -83 13 -105 -9z"/>
<path d="M3101 2247 c-11 -14 -5 -27 11 -27 5 0 6 5 2 11 -4 7 5 9 30 6 40 -5
58 7 23 17 -35 9 -54 7 -66 -7z"/>
<path d="M3441 2227 c-13 -6 -31 -23 -39 -37 l-16 -25 25 23 c14 12 29 19 34
15 4 -5 5 -2 0 6 -7 11 1 13 39 9 47 -6 63 5 24 16 -32 8 -40 7 -67 -7z"/>
<path d="M3774 2220 c-12 -5 -25 -14 -30 -21 -5 -8 -3 -10 6 -4 32 20 107 14
94 -7 -4 -6 -2 -8 3 -5 13 8 23 -15 23 -51 0 -21 2 -24 10 -12 17 26 11 51
-19 81 -30 30 -50 34 -87 19z"/>
<path d="M3001 2203 c-2 -27 14 -45 60 -69 27 -13 49 -31 49 -40 0 -8 5 -12
10 -9 23 14 7 37 -43 59 -31 13 -57 33 -64 47 -6 13 -12 19 -12 12z"/>
<path d="M2471 2144 c0 -11 3 -14 6 -6 3 7 2 16 -1 19 -3 4 -6 -2 -5 -13z"/>
<path d="M3295 2110 c12 -74 90 -130 180 -128 l50 1 -55 7 c-91 12 -139 45
-166 117 l-15 38 6 -35z"/>
<path d="M3622 2120 c0 -14 2 -19 5 -12 2 6 2 18 0 25 -3 6 -5 1 -5 -13z"/>
<path d="M2480 2114 c0 -21 42 -64 81 -84 23 -12 58 -20 90 -20 65 0 58 11 -8
14 -62 2 -120 31 -144 70 -10 17 -19 26 -19 20z"/>
<path d="M3630 2086 c0 -5 9 -23 20 -41 24 -39 102 -76 157 -74 35 1 34 2 -12
9 -68 10 -109 33 -140 77 -14 21 -25 34 -25 29z"/>
<path d="M3171 2022 c-19 -13 -45 -17 -100 -16 -57 1 -68 -1 -46 -7 77 -22
175 -4 175 31 0 12 0 12 -29 -8z"/>
<path d="M2830 2010 c20 -13 50 -13 50 0 0 6 -15 10 -32 10 -25 0 -29 -3 -18
-10z"/>
<path d="M3875 1990 c-16 -7 -17 -9 -3 -9 9 -1 20 4 23 9 7 11 7 11 -20 0z"/>
<path d="M454 1934 c3 -9 6 -18 6 -20 0 -2 7 -4 16 -4 13 0 14 3 5 13 -6 8 -8
17 -4 20 3 4 -2 7 -11 7 -12 0 -16 -5 -12 -16z"/>
<path d="M589 1913 c6 -12 11 -31 11 -42 0 -14 5 -19 16 -14 11 4 12 8 4 13
-7 4 -10 12 -8 16 3 5 -4 18 -15 29 l-20 20 12 -22z"/>
<path d="M475 1690 c-3 -5 -1 -10 4 -10 6 0 11 5 11 10 0 6 -2 10 -4 10 -3 0
-8 -4 -11 -10z"/>
<path d="M514 1561 c0 -11 4 -17 8 -15 4 3 8 12 8 20 0 8 -4 14 -8 14 -4 0 -8
-9 -8 -19z"/>
<path d="M1602 1454 c14 -16 33 -45 42 -64 9 -21 13 -25 10 -10 -13 50 -39 95
-59 98 -18 4 -17 1 7 -24z"/>
<path d="M646 1421 c-4 -6 0 -23 8 -38 l15 -28 -6 35 c-7 41 -9 45 -17 31z"/>
<path d="M110 1314 c0 -19 -86 -91 -102 -86 -12 3 -9 -23 4 -36 19 -19 26 -15
44 24 l18 37 21 -27 c11 -14 24 -26 27 -26 9 0 4 118 -5 127 -4 3 -7 -3 -7
-13z"/>
<path d="M1660 1220 c-1 -63 -4 -131 -5 -150 l-3 -35 19 40 c21 43 21 122 1
215 -8 40 -10 31 -12 -70z"/>
<path d="M475 1253 c-5 -49 -2 -86 9 -129 13 -50 42 -124 49 -124 9 0 -1 78
-11 89 -10 11 -11 16 -2 21 9 6 9 9 0 12 -7 2 -16 40 -22 98 -5 52 -11 96 -12
98 -2 2 -7 -28 -11 -65z"/>
<path d="M317 1278 c3 -18 10 -40 15 -48 7 -11 8 -8 4 10 -3 14 -6 35 -6 48 0
12 -4 22 -10 22 -5 0 -7 -14 -3 -32z"/>
<path d="M1430 1264 c0 -8 5 -12 10 -9 6 3 10 10 10 16 0 5 -4 9 -10 9 -5 0
-10 -7 -10 -16z"/>
<path d="M600 1248 c0 -9 5 -20 11 -23 17 -11 18 -2 3 19 -12 17 -14 17 -14 4z"/>
<path d="M1740 1192 c0 -33 -3 -75 -6 -93 -4 -26 -3 -30 5 -18 13 20 21 158 9
165 -4 3 -8 -22 -8 -54z"/>
<path d="M335 1200 c3 -5 8 -10 11 -10 2 0 4 5 4 10 0 6 -5 10 -11 10 -5 0 -7
-4 -4 -10z"/>
<path d="M26 1125 c4 -8 10 -12 15 -9 11 6 2 24 -11 24 -5 0 -7 -7 -4 -15z"/>
<path d="M358 1104 c-5 -4 -8 -19 -8 -33 1 -23 2 -24 11 -8 11 19 9 53 -3 41z"/>
<path d="M760 1090 c0 -5 5 -10 11 -10 5 0 7 5 4 10 -3 6 -8 10 -11 10 -2 0
-4 -4 -4 -10z"/>
<path d="M141 1081 c-8 -5 -10 -14 -6 -21 6 -9 10 -8 17 4 12 21 7 28 -11 17z"/>
<path d="M1695 998 c-36 -61 -151 -148 -196 -148 -29 0 -64 -22 -53 -33 3 -3
-20 -4 -50 -3 -31 1 -59 5 -63 9 -3 4 0 7 8 7 11 0 11 2 -1 10 -20 13 -33 13
-25 0 3 -5 0 -10 -7 -10 -10 0 -10 -2 -1 -8 8 -5 -1 -8 -22 -8 -19 0 -35 4
-35 9 0 4 -5 5 -11 1 -6 -3 -15 0 -20 7 -7 11 -9 9 -9 -6 0 -17 -2 -17 -10 -5
-6 10 -10 11 -10 3 0 -15 -46 -17 -55 -3 -3 6 -2 10 4 10 6 0 8 7 4 16 -3 9
-9 11 -12 6 -9 -14 -141 -16 -155 -2 -5 5 -14 6 -21 4 -7 -3 -41 6 -75 20 -85
35 -87 27 -3 -12 181 -83 472 -103 633 -43 66 25 150 96 186 157 15 25 25 47
22 49 -2 2 -12 -10 -23 -27z"/>
<path d="M2167 977 c-3 -8 -2 -20 3 -26 5 -9 8 -4 8 13 0 29 -3 32 -11 13z"/>
<path d="M1400 835 c0 -8 7 -15 16 -15 14 0 14 3 4 15 -7 8 -14 15 -16 15 -2
0 -4 -7 -4 -15z"/>
<path d="M1520 784 c-14 -7 -34 -14 -45 -14 -23 -1 -71 -37 -62 -47 10 -9 88
24 122 52 33 27 25 31 -15 9z"/>
<path d="M1380 729 c0 -5 -5 -7 -12 -3 -7 4 -8 3 -4 -4 10 -16 23 -15 30 3 3
8 1 15 -4 15 -6 0 -10 -5 -10 -11z"/>
<path d="M1240 720 c20 -13 33 -13 25 0 -3 6 -14 10 -23 10 -15 0 -15 -2 -2
-10z"/>
<path d="M611 569 c-1 -8 6 -24 15 -35 15 -19 15 -19 6 1 -5 11 -12 27 -15 35
-5 13 -6 13 -6 -1z"/>
<path d="M636 485 c4 -16 22 -72 41 -124 18 -52 33 -103 33 -114 0 -13 5 -17
15 -13 8 3 15 1 15 -4 0 -6 -4 -10 -9 -10 -5 0 -4 -11 2 -25 7 -14 16 -25 20
-25 4 0 3 -9 -2 -19 -8 -15 -7 -20 5 -25 8 -3 13 -10 9 -15 -6 -11 25 -81 37
-81 4 0 5 -7 2 -15 -4 -9 0 -15 9 -15 17 0 16 25 -1 65 -5 11 -14 34 -19 50
-29 84 -147 381 -155 390 -6 6 -7 -1 -2 -20z"/>
<path d="M2647 504 c-4 -4 5 -13 20 -21 20 -10 29 -11 37 -2 8 8 7 10 -4 7 -8
-3 -22 1 -31 8 -9 8 -19 11 -22 8z"/>
<path d="M2005 490 c-7 -12 16 -70 28 -70 4 0 0 14 -8 30 -9 17 -13 35 -10 40
3 6 4 10 1 10 -3 0 -8 -5 -11 -10z"/>
<path d="M2058 493 c6 -2 18 -2 25 0 6 3 1 5 -13 5 -14 0 -19 -2 -12 -5z"/>
<path d="M2128 465 c6 -47 17 -52 16 -7 -1 20 -5 37 -11 39 -5 2 -7 -12 -5
-32z"/>
<path d="M1940 477 c0 -2 14 -16 30 -32 24 -23 30 -25 30 -11 0 9 -5 14 -10
11 -6 -3 -13 0 -16 9 -5 12 -34 32 -34 23z"/>
<path d="M2047 459 c7 -25 30 -36 45 -21 8 8 5 9 -11 5 -15 -4 -21 -1 -21 10
0 9 -4 18 -9 21 -5 4 -7 -3 -4 -15z"/>
<path d="M2156 457 c3 -10 9 -15 12 -12 3 3 0 11 -7 18 -10 9 -11 8 -5 -6z"/>
<path d="M2660 460 c0 -5 5 -10 10 -10 6 0 10 5 10 10 0 6 -4 10 -10 10 -5 0
-10 -4 -10 -10z"/>
<path d="M2690 450 c0 -5 -7 -10 -15 -10 -13 0 -13 -2 -3 -14 8 -9 15 -10 19
-4 4 6 11 8 15 5 5 -3 16 2 24 11 13 14 12 15 -3 9 -9 -3 -17 -2 -17 3 0 6 -4
10 -10 10 -5 0 -10 -4 -10 -10z"/>
<path d="M2177 435 c-4 -8 -2 -17 3 -20 6 -4 10 3 10 14 0 25 -6 27 -13 6z"/>
<path d="M2216 413 c-3 -7 0 -15 6 -19 7 -4 8 -3 4 4 -7 11 21 18 49 12 6 -1
6 2 2 7 -13 13 -56 10 -61 -4z"/>
<path d="M1839 393 c-13 -17 -13 -17 6 -3 11 8 22 16 24 17 2 2 0 3 -6 3 -6 0
-17 -8 -24 -17z"/>
<path d="M2735 391 c-3 -6 1 -11 9 -11 9 0 16 -9 16 -20 0 -25 -17 -26 -23 -2
-4 13 -5 11 -6 -5 -1 -14 5 -23 14 -23 8 0 16 -9 17 -20 0 -11 1 -26 2 -32 1
-7 8 -19 16 -26 13 -10 12 -11 -4 -5 -19 6 -19 5 -3 -17 9 -14 17 -34 17 -45
0 -11 10 -57 22 -102 18 -64 27 -83 41 -83 10 0 20 7 24 17 7 19 -14 133 -28
148 -5 5 -9 30 -9 56 0 26 -4 50 -10 54 -5 3 -7 12 -4 20 4 9 -1 18 -11 21
-13 5 -14 9 -3 15 9 6 4 9 -15 9 -25 0 -28 3 -25 27 2 19 -2 29 -14 31 -9 2
-19 -2 -23 -7z"/>
<path d="M2035 366 c-20 -20 -23 -30 -16 -49 7 -17 6 -29 -2 -37 -9 -10 -9
-11 1 -6 6 4 12 3 12 -3 0 -5 -6 -12 -12 -14 -10 -4 -10 -6 0 -6 6 -1 12 -12
12 -25 0 -13 6 -28 13 -34 9 -8 12 0 12 34 0 24 -4 44 -8 44 -4 0 -7 6 -6 13
1 6 -1 20 -5 29 -16 37 20 60 93 60 18 0 20 2 10 9 -28 17 -79 10 -104 -15z"/>
<path d="M2245 380 c-3 -5 -1 -10 4 -10 6 0 11 5 11 10 0 6 -2 10 -4 10 -3 0
-8 -4 -11 -10z"/>
<path d="M1884 372 c4 -7 2 -19 -4 -27 -7 -9 -8 -15 -2 -15 16 0 24 32 11 44
-9 8 -10 8 -5 -2z"/>
<path d="M2295 349 c-4 -6 -5 -12 -2 -15 2 -3 7 2 10 11 7 17 1 20 -8 4z"/>
<path d="M2057 343 c-4 -3 -7 -13 -7 -22 1 -13 3 -13 11 2 11 19 8 33 -4 20z"/>
<path d="M2117 344 c7 -3 9 -12 6 -20 -3 -8 -1 -14 4 -14 5 0 9 9 10 20 1 13
-4 20 -15 19 -10 0 -12 -3 -5 -5z"/>
<path d="M2156 315 c-3 -9 1 -29 9 -45 8 -16 15 -42 16 -57 1 -28 1 -28 8 -3
6 23 -8 102 -21 115 -3 3 -8 -1 -12 -10z"/>
<path d="M1845 309 c-11 -17 1 -21 15 -4 8 9 8 15 2 15 -6 0 -14 -5 -17 -11z"/>
<path d="M2315 310 c3 -5 8 -10 11 -10 2 0 4 5 4 10 0 6 -5 10 -11 10 -5 0 -7
-4 -4 -10z"/>
<path d="M1790 303 c0 -4 8 -21 19 -36 15 -23 19 -25 25 -12 3 9 2 13 -4 10
-6 -3 -10 -1 -10 5 0 6 -7 18 -15 26 -8 9 -15 12 -15 7z"/>
<path d="M2081 286 c-9 -10 -6 -12 14 -8 29 5 31 8 11 15 -8 3 -19 0 -25 -7z"/>
<path d="M2361 264 c6 -7 16 -11 21 -8 11 7 3 17 -18 20 -12 2 -13 -1 -3 -12z"/>
<path d="M2125 250 c4 -6 11 -8 16 -5 14 9 11 15 -7 15 -8 0 -12 -5 -9 -10z"/>
<path d="M2060 233 c0 -5 5 -15 10 -23 7 -12 9 -10 7 8 -1 19 -17 33 -17 15z"/>
<path d="M1780 209 c0 -5 5 -7 10 -4 16 10 12 -12 -6 -29 -8 -9 -11 -16 -5
-16 14 0 33 38 26 50 -8 13 -25 13 -25 -1z"/>
<path d="M2090 204 c0 -13 3 -14 14 -5 8 7 26 9 43 6 21 -5 24 -4 13 4 -24 17
-70 14 -70 -5z"/>
<path d="M2110 176 c0 -10 9 -16 21 -16 24 0 21 23 -4 28 -10 2 -17 -3 -17
-12z"/>
<path d="M2050 154 c0 -9 -5 -13 -12 -9 -7 4 -4 -1 7 -10 20 -17 19 -17 -7
-11 -31 7 -48 -9 -18 -17 11 -3 20 -12 20 -21 0 -13 -4 -15 -19 -6 -11 5 -22
14 -25 19 -8 12 -65 -9 -62 -23 2 -6 1 -8 -1 -3 -7 11 -41 8 -49 -4 -3 -6 -16
-8 -27 -5 -13 3 -25 -1 -33 -12 -23 -29 -17 -48 16 -50 21 -2 30 2 30 13 0 18
14 19 32 3 22 -21 51 -19 45 3 -3 12 0 19 8 19 7 0 20 2 28 5 8 4 14 0 14 -9
0 -8 -5 -14 -10 -13 -5 1 -11 -2 -13 -8 -2 -5 12 -11 31 -12 25 -2 35 1 35 11
0 8 -4 18 -10 21 -6 3 -7 -1 -4 -9 3 -9 1 -16 -5 -16 -12 0 -14 11 -5 34 3 9
14 16 25 16 29 0 39 37 30 103 -2 14 -21 7 -21 -9z m-68 -76 c-7 -7 -12 -8
-12 -2 0 14 12 26 19 19 2 -3 -1 -11 -7 -17z m-141 -61 c-8 -8 -11 -5 -11 9 0
27 14 41 18 19 2 -9 -1 -22 -7 -28z"/>
<path d="M2156 135 c-4 -11 -10 -15 -14 -10 -4 6 -15 11 -25 13 -16 3 -17 0
-7 -17 6 -12 17 -21 24 -21 18 0 39 26 34 42 -3 7 -7 5 -12 -7z"/>
<path d="M2413 120 c-3 -11 -9 -20 -13 -20 -5 0 -11 -8 -13 -17 -4 -15 -5 -14
-6 3 -2 37 -50 61 -67 32 -5 -7 -2 -9 7 -4 8 4 5 0 -6 -9 -11 -9 -19 -21 -17
-26 1 -5 -2 -9 -8 -9 -5 0 -9 -15 -8 -34 l1 -34 110 -1 c91 -1 108 1 104 13
-3 8 -1 16 5 18 7 3 9 15 4 31 -4 17 -11 25 -18 21 -7 -4 -8 -3 -4 4 4 6 2 21
-4 32 -14 27 -60 27 -67 0z m-51 -57 c-7 -3 -18 -16 -23 -30 -12 -31 -24 -23
-16 9 4 16 14 24 29 25 13 0 17 -1 10 -4z m112 -18 c-30 -30 -30 -30 -37 -6
-3 14 -1 18 9 14 8 -3 14 0 14 6 0 6 9 11 20 11 17 0 17 -2 -6 -25z"/>
<path d="M2214 94 c-10 -8 -13 -12 -5 -8 11 5 12 1 7 -20 -4 -15 -2 -26 4 -26
9 0 13 17 11 50 0 8 6 2 14 -15 12 -25 14 -27 15 -9 0 33 -23 47 -46 28z"/>
<path d="M2082 60 c-19 -15 -21 -23 -13 -39 9 -17 21 -19 81 -18 50 1 70 5 70
14 0 7 -4 13 -10 13 -5 0 -10 9 -10 20 0 11 -4 20 -9 20 -5 0 -8 -7 -7 -16 2
-26 -18 -27 -29 -2 -13 30 -44 33 -73 8z"/>
<path d="M3054 36 c1 -27 5 -36 19 -36 22 0 21 19 -2 48 l-18 24 1 -36z"/>
<path d="M2248 18 c-15 -15 -16 -18 -3 -18 9 0 18 7 22 15 8 23 0 24 -19 3z"/>
<path d="M1880 10 c0 -5 5 -10 11 -10 5 0 7 5 4 10 -3 6 -8 10 -11 10 -2 0 -4
-4 -4 -10z"/>
</g>
</svg>
